<svg width="15" height="15" viewBox="0 0 15 15" fill="none" xmlns="http://www.w3.org/2000/svg">
<path d="M3.37087 15H0.262536V4.98484H3.37087V15ZM1.81579 3.61885C1.45836 3.62055 1.10845 3.51609 0.810321 3.31868C0.512189 3.12127 0.279218 2.83978 0.140868 2.50981C0.00251935 2.17983 -0.0349942 1.81619 0.0330715 1.46487C0.101137 1.11354 0.271725 0.79032 0.523264 0.536067C0.774803 0.281814 1.09599 0.107953 1.44622 0.0364672C1.79645 -0.0350182 2.15999 -0.000916348 2.49086 0.13446C2.82173 0.269837 3.10508 0.500408 3.30507 0.797017C3.50506 1.09363 3.61271 1.44295 3.61441 1.80082C3.61492 2.28017 3.42612 2.74029 3.0892 3.08085C2.75227 3.42141 2.29453 3.6148 1.81579 3.61885ZM14.9957 15H11.8966V10.1245C11.8966 8.9624 11.8733 7.47235 10.2814 7.47235C8.66615 7.47235 8.41893 8.73453 8.41893 10.0403V14.9994H5.31673V4.98484H8.29563V6.35082H8.33919C8.63708 5.84022 9.06777 5.42013 9.58536 5.13533C10.1029 4.85053 10.688 4.7117 11.2782 4.73363C14.4215 4.73363 15 6.80656 15 9.4986V15H14.9957Z" fill="#FCFCFC"/>
</svg>
