<svg width="15" height="12" viewBox="0 0 15 12" fill="none" xmlns="http://www.w3.org/2000/svg">
<path d="M14.971 1.43077C14.4095 1.67382 13.8147 1.83419 13.2057 1.90674C13.8471 1.52743 14.3273 0.932499 14.5577 0.231846C13.9516 0.579124 13.2911 0.8252 12.6033 0.960083C12.1822 0.516437 11.6352 0.207746 11.0334 0.0741526C10.4317 -0.0594412 9.80297 -0.0117567 9.22912 0.211005C8.65526 0.433767 8.16279 0.8213 7.81574 1.32321C7.46869 1.82512 7.28312 2.41818 7.28317 3.02527C7.28284 3.25875 7.30934 3.49152 7.36216 3.71914C6.13995 3.66105 4.94389 3.35015 3.85195 2.80669C2.76001 2.26323 1.79669 1.49941 1.02479 0.565026C0.749004 1.02612 0.605097 1.55205 0.608319 2.08708C0.607923 2.58538 0.732547 3.07607 0.971129 3.51559C1.20971 3.95511 1.55487 4.32985 1.97596 4.60656C1.4878 4.59139 1.01041 4.46156 0.583599 4.2279V4.26545C0.583247 4.96441 0.82864 5.64197 1.27814 6.18314C1.72763 6.72431 2.35354 7.09576 3.04965 7.23446C2.59868 7.35427 2.12603 7.37235 1.66697 7.28734C1.86455 7.88883 2.24797 8.41462 2.76374 8.79137C3.27951 9.16813 3.90191 9.37706 4.54412 9.38903C3.45585 10.2295 2.11205 10.6855 0.728693 10.6837C0.485183 10.683 0.241905 10.6688 0 10.6414C1.40981 11.5297 3.04904 12.0012 4.72307 12C10.3817 12 13.4722 7.38941 13.4722 3.39759C13.4722 3.26908 13.4722 3.13951 13.4631 3.00994C14.0664 2.58301 14.587 2.05298 15 1.44505L14.9704 1.43288L14.971 1.43077Z" fill="#FCFCFC"/>
</svg>
